<?xml version="1.0" encoding="utf-8"?><svg viewBox="0 0 25 25" xmlns="http://www.w3.org/2000/svg" xmlns:xlink="http://www.w3.org/1999/xlink"><style>:root>svg{display:none}:root>svg:target{display:block}</style><svg viewBox="0 0 14 14" id="icon-destar" xmlns="http://www.w3.org/2000/svg"><path d="M13.696 6.372a.998.998 0 00.254-1.029.998.998 0 00-.81-.683l-3.39-.493a.443.443 0 01-.334-.242L7.9.853a.998.998 0 00-.9-.56.998.998 0 00-.9.56L4.584 3.925a.443.443 0 01-.334.242L.86 4.66a.998.998 0 00-.81.683.998.998 0 00.254 1.03l2.452 2.39a.444.444 0 01.128.393l-.578 3.375a.983.983 0 00.218.814c.3.356.821.464 1.238.245l3.032-1.594a.454.454 0 01.412 0l3.032 1.594a.994.994 0 001.238-.245.983.983 0 00.219-.814l-.58-3.375a.443.443 0 01.128-.393l2.453-2.39z"/></svg><svg viewBox="0 0 21 12" id="icon-header-arrow" xmlns="http://www.w3.org/2000/svg"><path d="M10.59 1.41L14.17 5H0v2h14.17l-3.59 3.59L12 12l6-6-6-6-1.41 1.41zM19 0v12h2V0h-2z"/></svg><svg viewBox="0 0 11 18" id="icon-hero-arrow" xmlns="http://www.w3.org/2000/svg"><path d="M1.5 1l7.778 7.778L1.5 16.556"/></svg><svg viewBox="0 0 25 25" id="icon-social-comp" xmlns="http://www.w3.org/2000/svg"><g clip-path="url(#dclip0_370726_100)"><path d="M17.178 11.784c-.844 0-1.534.665-1.534 1.509 0 .843.69 1.533 1.508 1.533a1.51 1.51 0 001.508-1.508 1.465 1.465 0 00-1.482-1.534zm0 2.275a.753.753 0 01-.767-.766c0-.435.332-.767.767-.767a.77.77 0 01.767.767.769.769 0 01-.767.767zM7.796 9.586c-2.019-.026-3.783 1.662-3.732 3.809.026 1.994 1.688 3.706 3.784 3.68 2.045-.025 3.706-1.686 3.706-3.731a3.747 3.747 0 00-3.758-3.758zm.052 6.033c-1.355.05-2.454-1.023-2.454-2.326 0-1.33 1.099-2.352 2.326-2.327a2.318 2.318 0 012.326 2.327c.026 1.303-.997 2.275-2.198 2.326z"/><path d="M12.5 0C5.598 0 0 5.598 0 12.5S5.598 25 12.5 25 25 19.402 25 12.5 19.402 0 12.5 0zm7.183 17.357a4.6 4.6 0 01-2.505.716c-.384 0-.767-.052-1.125-.154a4.808 4.808 0 01-2.3-1.355c-.077-.076-.154-.178-.256-.28-.332.51-.665.996-.997 1.507-.332-.51-.665-.997-.997-1.482-.026 0-.026.025-.026.025l-.025.026c-.767.92-1.738 1.457-2.914 1.662a4.526 4.526 0 01-1.943-.103 4.753 4.753 0 01-2.3-1.431c-.614-.69-.972-1.483-1.125-2.403-.154-.844.025-1.662.076-1.866.154-.588.384-1.1.742-1.585.025-.026.025-.102.025-.128-.128-.511-.383-.971-.664-1.431-.077-.103-.154-.205-.23-.333v-.025h2.888c.051 0 .077-.026.128-.051a9.543 9.543 0 012.122-1.023 11.853 11.853 0 011.636-.434 11.443 11.443 0 011.636-.205c1.329-.102 2.402.026 3.118.128.537.077 1.048.204 1.56.358.894.28 1.712.664 2.505 1.15a.482.482 0 00.204.051H21.906v.026c-.05.076-.076.128-.127.204-.307.486-.588.972-.741 1.534-.026.051-.026.102.025.179.818 1.176 1.074 2.48.742 3.885-.358 1.202-1.048 2.148-2.122 2.838z"/><path d="M7.72 11.784c-.818 0-1.508.69-1.508 1.509 0 .843.69 1.508 1.533 1.508.818 0 1.509-.69 1.509-1.534 0-.818-.665-1.483-1.534-1.483zm.025 2.301a.78.78 0 01-.792-.792c0-.435.332-.767.767-.767.434 0 .767.332.792.767.026.434-.332.767-.767.792zM17.101 9.612a3.76 3.76 0 00-3.68 3.732c0 2.07 1.686 3.783 3.757 3.757a3.748 3.748 0 003.758-3.757A3.727 3.727 0 0017.1 9.612zm.18 6.007a2.327 2.327 0 01-2.43-2.326c0-1.33 1.1-2.352 2.327-2.327a2.318 2.318 0 012.326 2.327 2.333 2.333 0 01-2.224 2.326z"/><path d="M13.983 9.867c.818-.767 1.814-1.15 2.94-1.252-1.33-.588-2.736-.844-4.193-.87-1.636-.025-3.246.205-4.755.844 1.15.077 2.148.46 2.991 1.227.844.767 1.33 1.738 1.508 2.863.205-1.1.69-2.045 1.509-2.812z"/></g><defs><clipPath id="dclip0_370726_100"><path d="M0 0h25v25H0z"/></clipPath></defs></svg><svg viewBox="0 0 25 25" id="icon-social-ok" xmlns="http://www.w3.org/2000/svg"><path d="M10.71 8.326a1.866 1.866 0 103.733 0 1.866 1.866 0 00-3.732 0z"/><path fill-rule="evenodd" clip-rule="evenodd" d="M12.5 25C19.404 25 25 19.404 25 12.5S19.404 0 12.5 0 0 5.596 0 12.5 5.596 25 12.5 25zM8.063 8.325a4.514 4.514 0 119.028 0 4.514 4.514 0 01-9.028 0zm9.055 6.837c-.058.046-1.14.901-2.948 1.27l2.728 2.703a1.227 1.227 0 11-1.734 1.737l-2.649-2.579-2.405 2.563a1.223 1.223 0 01-1.736.031 1.227 1.227 0 01-.031-1.735l2.589-2.706c-1.858-.36-2.985-1.238-3.043-1.284a1.228 1.228 0 011.535-1.916c.011.01 1.19.896 3.091.897 1.9-.001 3.056-.887 3.067-.897a1.227 1.227 0 011.536 1.916z"/></svg><svg viewBox="0 0 25 25" id="icon-social-vk" xmlns="http://www.w3.org/2000/svg"><g clip-path="url(#fclip0_370726_103)"><path d="M12.5 0C5.598 0 0 5.598 0 12.5S5.598 25 12.5 25 25 19.402 25 12.5 19.402 0 12.5 0zm6.34 13.855c.587.562 1.2 1.099 1.712 1.738.23.281.46.562.614.895.23.46.025.971-.384.997h-2.556c-.665.05-1.176-.205-1.636-.665-.358-.358-.69-.741-1.022-1.125a1.762 1.762 0 00-.46-.409c-.359-.23-.665-.153-.844.205-.205.383-.256.792-.281 1.201-.026.614-.205.767-.818.793-1.304.05-2.531-.128-3.656-.793-.997-.588-1.79-1.38-2.454-2.3-1.329-1.79-2.326-3.758-3.246-5.777-.205-.46-.051-.69.46-.716a40.93 40.93 0 012.505 0c.332 0 .562.204.69.511.46 1.1.997 2.173 1.687 3.144.18.256.384.511.64.716.306.204.51.128.664-.205.077-.204.128-.434.153-.664a8.668 8.668 0 00-.05-2.3c-.077-.512-.333-.819-.819-.921-.255-.051-.204-.128-.102-.281.204-.23.409-.384.792-.384h2.889c.46.103.562.282.614.742v3.22c0 .18.076.716.409.819.255.076.434-.128.587-.282.69-.741 1.176-1.61 1.636-2.505.205-.409.358-.818.537-1.227.128-.307.307-.46.665-.46h2.786c.077 0 .154 0 .256.026.46.076.588.28.46.741-.23.716-.665 1.33-1.1 1.917-.46.64-.97 1.253-1.43 1.917-.46.614-.435.92.101 1.432z"/></g><defs><clipPath id="fclip0_370726_103"><path d="M0 0h25v25H0z"/></clipPath></defs></svg><svg viewBox="0 0 14 14" id="icon-star" xmlns="http://www.w3.org/2000/svg"><path d="M13.696 6.372a.998.998 0 00.254-1.029.998.998 0 00-.81-.683l-3.39-.493a.443.443 0 01-.334-.242L7.9.853a.998.998 0 00-.9-.56.998.998 0 00-.9.56L4.584 3.925a.443.443 0 01-.334.242L.86 4.66a.998.998 0 00-.81.683.998.998 0 00.254 1.03l2.452 2.39a.444.444 0 01.128.393l-.578 3.375a.983.983 0 00.218.814c.3.356.821.464 1.238.245l3.032-1.594a.454.454 0 01.412 0l3.032 1.594a.994.994 0 001.238-.245.983.983 0 00.219-.814l-.58-3.375a.443.443 0 01.128-.393l2.453-2.39z"/></svg></svg>